# xmcd CD database file
#
# Track frame offsets:
#	187
#	45110
#	60892
#	107170
#	137355
#	167027
#	203610
#
# Disc length: 2970 seconds
#
# Revision: 2
# Processed by: cddbd v1.5.2PL0 Copyright (c) Steve Scherf et al.
# Submitted via: CDex 1.51
#
DISCID=4a0b9807
DTITLE=Anthony Braxton - What´s New In the Traditon - Disk 2
DYEAR=1974
DGENRE=Jazz
TTITLE0=What´s New
TTITLE1=Duet
TTITLE2=Body And Soul
TTITLE3=Marshmallow
TTITLE4=Donna Lee
TTITLE5=My Funny Valentine
TTITLE6=Half Nelson
EXTD=YEAR: 1974
EXTT0=
EXTT1=
EXTT2=
EXTT3=
EXTT4=
EXTT5=
EXTT6=
PLAYORDER=
